# Blender v2.90.1 OBJ File: 'Torch.blend'
# www.blender.org
mtllib Torch.mtl
o Cube_Cube.001
v -0.100000 -0.700000 0.100000
v -0.300000 2.100000 0.300000
v -0.100000 -0.700000 -0.100000
v -0.300000 2.100000 -0.300000
v 0.100000 -0.700000 0.100000
v 0.300000 2.100000 0.300000
v 0.100000 -0.700000 -0.100000
v 0.300000 2.100000 -0.300000
v -0.300000 2.100000 0.300000
v -0.300000 2.100000 -0.300000
v 0.300000 2.100000 0.300000
v 0.300000 2.100000 -0.300000
v -0.360000 2.100000 0.360000
v -0.360000 2.100000 -0.360000
v 0.360000 2.100000 0.360000
v 0.360000 2.100000 -0.360000
v -0.360000 4.200000 0.360000
v -0.360000 4.200000 -0.360000
v 0.360000 4.200000 0.360000
v 0.360000 4.200000 -0.360000
vt 0.375000 0.000000
vt 0.625000 0.000000
vt 0.625000 0.250000
vt 0.375000 0.250000
vt 0.625000 0.500000
vt 0.375000 0.500000
vt 0.625000 0.750000
vt 0.375000 0.750000
vt 0.625000 1.000000
vt 0.375000 1.000000
vt 0.125000 0.500000
vt 0.125000 0.750000
vt 0.625000 0.000000
vt 0.625000 0.250000
vt 0.625000 1.000000
vt 0.625000 0.750000
vt 0.625000 0.750000
vt 0.625000 1.000000
vt 0.625000 0.500000
vt 0.625000 0.500000
vt 0.625000 0.500000
vt 0.625000 0.750000
vt 0.625000 0.250000
vt 0.625000 0.000000
vt 0.875000 0.500000
vt 0.875000 0.750000
vt 0.625000 0.000000
vt 0.625000 0.250000
vt 0.625000 1.000000
vn -0.9975 -0.0712 0.0000
vn 0.0000 -0.0712 -0.9975
vn 0.9975 -0.0712 0.0000
vn 0.0000 -0.0712 0.9975
vn 0.0000 -1.0000 0.0000
vn 0.0000 0.0000 1.0000
vn 1.0000 0.0000 0.0000
vn 0.0000 1.0000 0.0000
vn -1.0000 0.0000 0.0000
vn 0.0000 0.0000 -1.0000
usemtl Handle
s off
f 1/1/1 2/2/1 4/3/1 3/4/1
f 3/4/2 4/3/2 8/5/2 7/6/2
f 7/6/3 8/5/3 6/7/3 5/8/3
f 5/8/4 6/7/4 2/9/4 1/10/4
f 3/11/5 7/6/5 5/8/5 1/12/5
f 4/3/6 2/2/6 9/13/6 10/14/6
f 9/15/5 11/16/5 15/17/5 13/18/5
f 2/9/6 6/7/6 11/16/6 9/15/6
f 8/5/6 4/3/6 10/14/6 12/19/6
f 6/7/6 8/5/6 12/19/6 11/16/6
f 15/17/7 16/20/7 20/21/7 19/22/7
f 12/19/5 10/14/5 14/23/5 16/20/5
f 11/16/5 12/19/5 16/20/5 15/17/5
f 10/14/5 9/13/5 13/24/5 14/23/5
f 20/21/8 18/25/8 17/26/8 19/22/8
f 14/23/9 13/24/9 17/27/9 18/28/9
f 13/18/6 15/17/6 19/22/6 17/29/6
f 16/20/10 14/23/10 18/28/10 20/21/10
